<svg xmlns="http://www.w3.org/2000/svg" width="472" height="472" viewBox="0 0 472 472" version="1.1"><path d="M 77 15 C 75.041 15.627, 74.933 15.797, 76.500 15.782 C 77.600 15.772, 79.850 15.420, 81.500 15 C 84.195 14.314, 84.246 14.235, 82 14.218 C 80.625 14.208, 78.375 14.560, 77 15 M 162.750 14.750 C 203.588 14.895, 270.413 14.895, 311.250 14.750 C 352.088 14.605, 318.675 14.487, 237 14.487 C 155.325 14.487, 121.913 14.605, 162.750 14.750 M 389.500 15 C 391.150 15.420, 393.400 15.785, 394.500 15.811 L 396.500 15.859 394.500 15 C 393.400 14.527, 391.150 14.162, 389.500 14.189 L 386.500 14.237 389.500 15 M 70.500 16 C 68.572 16.829, 68.579 16.862, 70.691 16.930 C 71.896 16.968, 73.160 16.550, 73.500 16 C 74.231 14.817, 73.252 14.817, 70.500 16 M 398 16 C 398 16.550, 399.012 16.993, 400.250 16.985 C 402.069 16.972, 402.213 16.784, 401 16 C 399.061 14.747, 398 14.747, 398 16 M 62.423 18.410 C 58.053 19.778, 47.758 25.091, 48.343 25.676 C 48.537 25.870, 50.677 24.949, 53.098 23.628 C 55.519 22.307, 59.862 20.465, 62.750 19.533 C 65.638 18.601, 68 17.650, 68 17.420 C 68 16.804, 66.965 16.988, 62.423 18.410 M 408 18.577 C 408 19.252, 413.195 21.139, 413.690 20.644 C 413.917 20.417, 412.729 19.753, 411.051 19.168 C 409.373 18.583, 408 18.317, 408 18.577 M 423.037 25.691 C 423.057 26.136, 424.969 27.707, 427.287 29.183 C 429.604 30.659, 434.200 34.233, 437.500 37.126 C 440.800 40.019, 442.150 40.908, 440.500 39.101 C 437.740 36.079, 427.183 27.313, 424.250 25.608 C 423.563 25.209, 423.016 25.246, 423.037 25.691 M 41.400 29.833 C 39.255 31.392, 36.825 33.517, 36 34.557 C 34.805 36.063, 40.322 32.119, 45.450 27.800 C 47.779 25.839, 44.929 27.269, 41.400 29.833 M 31.099 39.250 C 29.722 41.492, 29.724 41.493, 31.858 39.595 C 34.150 37.557, 34.446 37, 33.241 37 C 32.823 37, 31.859 38.013, 31.099 39.250 M 25.252 45.750 C 21.691 50.328, 20.367 52.509, 21.617 51.737 C 22.784 51.015, 29.293 42, 28.646 42 C 28.383 42, 26.856 43.688, 25.252 45.750 M 446.872 47.500 C 447.412 48.600, 448.586 50.400, 449.482 51.500 L 451.110 53.500 450.128 51.500 C 449.588 50.400, 448.414 48.600, 447.518 47.500 L 445.890 45.500 446.872 47.500 M 17.729 57.370 C 15.210 61.875, 12.760 68.094, 13.293 68.627 C 13.459 68.793, 15.223 65.345, 17.213 60.964 C 19.203 56.584, 20.683 53, 20.501 53 C 20.320 53, 19.072 54.966, 17.729 57.370 M 454.198 60.713 C 455.918 64.446, 457.533 67.725, 457.787 68 C 458.714 69.004, 456.737 63.385, 454.683 59.177 C 451.220 52.083, 450.814 53.369, 454.198 60.713 M 458.203 70.086 C 458.501 70.864, 459.325 74.090, 460.033 77.256 C 460.741 80.422, 461.505 82.828, 461.730 82.603 C 462.470 81.863, 459.754 69.966, 458.695 69.312 C 458.098 68.943, 457.890 69.270, 458.203 70.086 M 11.710 71.500 C 11.378 72.600, 10.862 75.300, 10.564 77.500 C 10.061 81.209, 10.128 81.136, 11.490 76.500 C 12.298 73.750, 12.814 71.050, 12.636 70.500 C 12.459 69.950, 12.042 70.400, 11.710 71.500 M 9.252 85.500 C 9.263 87.700, 9.468 88.482, 9.707 87.238 C 9.946 85.994, 9.937 84.194, 9.687 83.238 C 9.437 82.282, 9.241 83.300, 9.252 85.500 M 462.487 235 C 462.487 318.325, 462.605 352.413, 462.750 310.750 C 462.894 269.088, 462.894 200.913, 462.750 159.250 C 462.605 117.588, 462.487 151.675, 462.487 235 M 132.549 133.250 C 132.336 133.938, 131.874 136.975, 131.523 140 C 130.915 145.235, 125.488 162.721, 117.713 184.500 C 115.750 190, 109.116 208.900, 102.972 226.500 C 82.097 286.299, 78.875 295.490, 73.936 309.329 C 71.221 316.934, 69 324.022, 69 325.079 C 69 326.908, 69.931 327, 88.378 327 C 102.695 327, 108.009 326.674, 108.726 325.750 C 109.259 325.063, 112.539 315.500, 116.013 304.500 C 119.487 293.500, 122.724 283.707, 123.207 282.737 C 124.023 281.096, 126.483 280.992, 158.714 281.237 L 193.344 281.500 197.684 294 C 200.071 300.875, 203.642 311.113, 205.621 316.750 L 209.218 327 230.609 327 C 250.318 327, 251.999 326.862, 251.992 325.250 C 251.987 324.288, 244.986 303.925, 236.434 280 C 227.881 256.075, 212.774 213.792, 202.863 186.037 C 192.951 158.282, 184.412 134.770, 183.886 133.787 C 183.007 132.144, 180.912 132, 157.933 132 C 138.810 132, 132.846 132.294, 132.549 133.250 M 152.710 184.750 C 137.878 233.747, 135.306 242.564, 135.661 243.196 C 136.319 244.369, 179.860 244.036, 180.592 242.852 C 181.278 241.742, 159.097 169, 158.073 169 C 157.746 169, 155.332 176.088, 152.710 184.750 M 318.500 174.002 C 292.514 177.910, 274.775 192.996, 265.927 218.711 C 262.591 228.407, 260.699 240.968, 260.612 254 C 260.511 269.002, 262.140 276.249, 268.678 289.888 C 277.647 308.597, 293.944 320.703, 316.631 325.510 C 331.042 328.563, 357.913 326.810, 374 321.767 L 381.500 319.416 381.775 303.078 L 382.051 286.740 378.775 287.428 C 358.937 291.595, 339.988 292.257, 328.856 289.170 C 320.868 286.955, 314.166 283.169, 310.446 278.770 C 307.117 274.834, 303.390 266.893, 302.457 261.750 L 301.777 258 348.889 258 L 396 258 395.991 252.250 C 395.942 218.999, 388.108 197.962, 371 185.135 C 358.297 175.611, 337.343 171.167, 318.500 174.002 M 320.969 204.476 C 311.808 207.421, 303.078 217.791, 302.696 226.179 L 302.500 230.500 329.750 230.766 L 357 231.032 356.990 227.766 C 356.977 223.399, 353.030 215.293, 348.872 211.095 C 342.174 204.332, 330.230 201.499, 320.969 204.476 M 9.090 384.590 C 8.957 389.152, 12.404 401.728, 15.900 409.440 C 18.793 415.821, 26.874 428.186, 29.015 429.509 C 30.694 430.547, 30.120 429.425, 26.904 425.388 C 18.836 415.259, 12.898 402.044, 10.528 388.947 C 9.787 384.851, 9.140 382.891, 9.090 384.590 M 459.658 395.321 C 459.232 397.423, 458.678 399.898, 458.427 400.821 C 458.176 401.744, 458.676 400.982, 459.539 399.126 C 460.401 397.271, 460.955 394.796, 460.770 393.626 C 460.536 392.147, 460.198 392.663, 459.658 395.321 M 455.977 406.218 C 452.581 414.839, 445.156 425.517, 437.293 433.083 C 432.769 437.438, 428.602 441, 428.034 441 C 427.465 441, 427 441.481, 427 442.068 C 427 445.176, 443.041 429.775, 449.106 420.844 C 453.430 414.477, 458.522 404.188, 457.737 403.404 C 457.480 403.146, 456.688 404.413, 455.977 406.218 M 35.803 436.178 C 38.144 439.150, 51.691 447.791, 57.433 449.974 C 61.462 451.506, 60.433 450.079, 56.250 448.333 C 52.991 446.973, 45.390 442.218, 37 436.290 C 34.856 434.775, 34.685 434.759, 35.803 436.178 M 422 445.089 C 420.339 446.448, 420.172 446.787, 421.500 446.101 C 424.762 444.415, 426.570 443.030, 425.500 443.038 C 424.950 443.041, 423.375 443.965, 422 445.089 M 414 449 C 412.075 450.054, 410.852 450.935, 411.282 450.958 C 412.517 451.024, 419 448.162, 419 447.551 C 419 446.613, 417.639 447.008, 414 449 M 63.500 452.451 C 65.150 453.160, 68.300 454.002, 70.500 454.324 C 73.730 454.796, 73.345 454.535, 68.500 452.968 C 61.754 450.786, 58.945 450.496, 63.500 452.451 M 400.500 453.607 L 396.500 455.005 400.500 454.411 C 404.662 453.793, 409.032 451.985, 406 452.135 C 405.175 452.176, 402.700 452.839, 400.500 453.607 M 78 456 C 79.375 456.440, 81.625 456.839, 83 456.885 C 84.966 456.951, 85.179 456.762, 84 456 C 83.175 455.467, 80.925 455.069, 79 455.115 C 75.793 455.192, 75.709 455.266, 78 456 M 386.500 456 C 384.806 456.728, 384.959 456.852, 387.500 456.811 C 389.150 456.785, 391.850 456.420, 393.500 456 C 396.367 455.270, 396.323 455.235, 392.500 455.189 C 390.300 455.162, 387.600 455.527, 386.500 456" stroke="none" fill="#9a9af9" fill-rule="evenodd"/><path d="M 83.564 14.769 C 83.416 14.917, 81.316 15.209, 78.898 15.417 C 76.479 15.626, 73.825 16.008, 73 16.266 C 62.234 19.634, 56.768 21.659, 53.124 23.632 C 50.717 24.934, 48.130 26, 47.374 26 C 46.618 26, 46 26.374, 46 26.830 C 46 27.287, 44.087 29.048, 41.750 30.744 C 27.330 41.206, 16.141 58.258, 11.398 77 C 9.576 84.202, 9.500 90.507, 9.500 235.500 L 9.500 386.500 11.734 394.876 C 15.264 408.112, 23.603 423.016, 32.787 432.500 C 39.956 439.904, 56.344 449.440, 67 452.410 C 70.575 453.406, 73.890 454.455, 74.368 454.742 C 74.845 455.029, 77.320 455.468, 79.868 455.717 C 89.817 456.692, 381.587 457.087, 386.500 456.133 C 389.250 455.598, 394.200 454.618, 397.500 453.953 C 400.800 453.289, 404.512 452.690, 405.750 452.622 C 406.988 452.555, 408 452.163, 408 451.750 C 408 451.337, 408.443 451, 408.984 451 C 410.654 451, 423.930 444.289, 427.778 441.500 C 432.095 438.371, 444.673 425.872, 447.205 422.197 C 452.498 414.513, 457.899 402.548, 459.965 393.929 C 461.946 385.665, 461.986 382.554, 461.993 235.167 C 462 86.603, 461.976 84.738, 459.938 76.759 C 456.645 63.859, 450.182 51.011, 442.596 42.283 C 440.893 40.323, 436.125 36.075, 432 32.842 C 427.875 29.608, 424.015 26.576, 423.423 26.104 C 422.831 25.631, 421.368 24.934, 420.173 24.555 C 418.978 24.176, 418 23.494, 418 23.041 C 418 22.588, 416.895 21.939, 415.544 21.600 C 414.193 21.261, 411.831 20.463, 410.294 19.826 C 408.757 19.189, 407.275 18.586, 407 18.486 C 406.725 18.386, 404.587 17.953, 402.250 17.524 C 399.913 17.095, 398 16.464, 397.999 16.122 C 397.998 15.780, 395.636 15.408, 392.749 15.295 C 384.612 14.976, 83.868 14.465, 83.564 14.769 M 132.549 133.250 C 132.336 133.938, 131.874 136.975, 131.523 140 C 130.915 145.235, 125.488 162.721, 117.713 184.500 C 115.750 190, 109.116 208.900, 102.972 226.500 C 82.097 286.299, 78.875 295.490, 73.936 309.329 C 71.221 316.934, 69 324.022, 69 325.079 C 69 326.908, 69.931 327, 88.378 327 C 102.695 327, 108.009 326.674, 108.726 325.750 C 109.259 325.063, 112.539 315.500, 116.013 304.500 C 119.487 293.500, 122.724 283.707, 123.207 282.737 C 124.023 281.096, 126.483 280.992, 158.714 281.237 L 193.344 281.500 197.684 294 C 200.071 300.875, 203.642 311.113, 205.621 316.750 L 209.218 327 230.609 327 C 250.318 327, 251.999 326.862, 251.992 325.250 C 251.987 324.288, 244.986 303.925, 236.434 280 C 227.881 256.075, 212.774 213.792, 202.863 186.037 C 192.951 158.282, 184.412 134.770, 183.886 133.787 C 183.007 132.144, 180.912 132, 157.933 132 C 138.810 132, 132.846 132.294, 132.549 133.250 M 152.710 184.750 C 137.878 233.747, 135.306 242.564, 135.661 243.196 C 136.319 244.369, 179.860 244.036, 180.592 242.852 C 181.278 241.742, 159.097 169, 158.073 169 C 157.746 169, 155.332 176.088, 152.710 184.750 M 318.500 174.002 C 292.514 177.910, 274.775 192.996, 265.927 218.711 C 262.591 228.407, 260.699 240.968, 260.612 254 C 260.511 269.002, 262.140 276.249, 268.678 289.888 C 277.647 308.597, 293.944 320.703, 316.631 325.510 C 331.042 328.563, 357.913 326.810, 374 321.767 L 381.500 319.416 381.775 303.078 L 382.051 286.740 378.775 287.428 C 358.937 291.595, 339.988 292.257, 328.856 289.170 C 320.868 286.955, 314.166 283.169, 310.446 278.770 C 307.117 274.834, 303.390 266.893, 302.457 261.750 L 301.777 258 348.889 258 L 396 258 395.991 252.250 C 395.942 218.999, 388.108 197.962, 371 185.135 C 358.297 175.611, 337.343 171.167, 318.500 174.002 M 320.969 204.476 C 311.808 207.421, 303.078 217.791, 302.696 226.179 L 302.500 230.500 329.750 230.766 L 357 231.032 356.990 227.766 C 356.977 223.399, 353.030 215.293, 348.872 211.095 C 342.174 204.332, 330.230 201.499, 320.969 204.476" stroke="none" fill="#04045b" fill-rule="evenodd"/></svg>