<svg xmlns="http://www.w3.org/2000/svg" width="225" height="225" viewBox="0 0 225 225" version="1.1"><path d="M 100.750 0.662 C 101.438 0.940, 102.563 0.940, 103.250 0.662 C 103.938 0.385, 103.375 0.158, 102 0.158 C 100.625 0.158, 100.063 0.385, 100.750 0.662 M 121.750 0.662 C 122.438 0.940, 123.563 0.940, 124.250 0.662 C 124.938 0.385, 124.375 0.158, 123 0.158 C 121.625 0.158, 121.063 0.385, 121.750 0.662 M 36.946 28.750 L 33.500 32.500 37.250 29.054 C 40.740 25.846, 41.460 25, 40.696 25 C 40.529 25, 38.842 26.688, 36.946 28.750 M 194.500 36 C 195.495 37.100, 196.535 38, 196.810 38 C 197.085 38, 196.495 37.100, 195.500 36 C 194.505 34.900, 193.465 34, 193.190 34 C 192.915 34, 193.505 34.900, 194.500 36 M 27.437 38.250 L 24.500 41.500 27.750 38.563 C 29.538 36.948, 31 35.485, 31 35.313 C 31 34.540, 30.175 35.221, 27.437 38.250 M 50.920 85.084 C 36.558 87.284, 26 100.759, 26 116.888 C 26 127.992, 29.143 134.502, 36.256 138.130 C 44.718 142.448, 56.297 139.028, 62.152 130.483 L 64.441 127.143 65.640 129.996 C 68.288 136.292, 74.630 137.461, 79.535 132.556 L 81.897 130.194 83.422 132.521 C 86.209 136.775, 91.432 136.568, 95.978 132.022 L 98.036 129.964 99.003 132.508 C 99.535 133.907, 100.657 135.315, 101.498 135.638 C 103.356 136.351, 106 134.333, 106 132.201 C 106 131.346, 107.763 127.004, 109.917 122.553 C 113.705 114.728, 117.352 110.018, 118.632 111.298 C 118.973 111.639, 118.676 115.458, 117.974 119.785 C 117.271 124.112, 116.997 128.850, 117.364 130.314 C 118.187 133.593, 122.203 136.388, 124.875 135.540 C 127.569 134.685, 132.593 129.397, 134.047 125.886 C 135.666 121.978, 136.626 122.258, 137.360 126.850 C 137.975 130.695, 141.300 136, 143.095 136 C 144.984 136, 153.161 127.543, 156.226 122.420 C 158.788 118.135, 159.938 117.109, 162.513 116.809 L 165.664 116.441 164.719 120.871 C 162.129 133.014, 171.016 140.072, 179.153 132.335 L 181.806 129.812 182.488 131.963 C 183.312 134.558, 187.240 136.229, 190.559 135.396 C 193.839 134.573, 199 128.501, 199 125.465 C 199 121.978, 197.820 122.408, 195.500 126.741 C 194.400 128.795, 192.713 130.627, 191.750 130.812 C 190.278 131.093, 190 130.377, 190 126.303 C 190 123.639, 190.900 118.212, 192 114.243 C 193.100 110.273, 194 106.345, 194 105.513 C 194 103.294, 189.647 103.627, 187.490 106.011 L 185.670 108.023 183.796 106.011 C 182.765 104.905, 180.755 104, 179.329 104 C 176.127 104, 170.730 107.237, 168.657 110.401 C 167.804 111.703, 165.681 113.264, 163.940 113.871 C 160.932 114.920, 160.804 114.863, 161.387 112.737 C 163.995 103.232, 162.795 98, 158.005 98 C 155.064 98, 151.581 101.241, 150.725 104.774 C 149.949 107.978, 151.723 113.693, 153.985 115.277 C 155.834 116.572, 155.805 116.764, 153.040 121.605 C 146.678 132.746, 144.652 131.345, 144.148 115.456 C 143.796 104.370, 143.712 104, 141.547 104 C 138.287 104, 136.273 106.822, 135.478 112.500 C 134.270 121.130, 129.954 129, 126.429 129 C 124.550 129, 124.584 124.919, 126.533 116.516 C 128.411 108.418, 127.236 104.701, 122.633 104.173 C 120.308 103.906, 118.877 104.783, 114.890 108.920 L 110 113.993 109.985 110.247 C 109.965 105.438, 108.846 103.741, 105.970 104.163 C 104.022 104.448, 103.474 105.443, 102.427 110.595 C 100.153 121.790, 94.104 132.418, 91.074 130.546 C 89.437 129.534, 89.764 126.128, 92.515 115.539 C 93.899 110.214, 94.772 105.440, 94.456 104.929 C 93.516 103.408, 90.437 103.869, 87.827 105.922 C 85.417 107.818, 85.367 107.818, 84.183 105.922 C 82.558 103.320, 78.108 103.462, 73.898 106.250 C 71.521 107.824, 69.226 111.054, 66.260 117 C 58.909 131.736, 50.571 137.444, 42.373 133.353 C 36.540 130.443, 34.792 126.180, 35.257 116 C 35.711 106.068, 38.351 99.894, 44.821 93.638 C 49.469 89.142, 56.514 87.504, 58.889 90.367 C 60.486 92.290, 60.601 98.009, 59.100 100.813 C 57.483 103.834, 57.747 105, 60.048 105 C 62.782 105, 66.677 100.653, 67.213 97.002 C 68.415 88.816, 61.167 83.514, 50.920 85.084 M 0.079 101.583 C 0.127 102.748, 0.364 102.985, 0.683 102.188 C 0.972 101.466, 0.936 100.603, 0.604 100.271 C 0.272 99.939, 0.036 100.529, 0.079 101.583 M 155.885 104.250 C 155.533 111.129, 157.429 113.975, 158.384 108.002 C 158.746 105.734, 158.782 103.456, 158.463 102.939 C 157.413 101.241, 156.002 101.958, 155.885 104.250 M 224.158 104 C 224.158 105.375, 224.385 105.938, 224.662 105.250 C 224.940 104.563, 224.940 103.438, 224.662 102.750 C 224.385 102.063, 224.158 102.625, 224.158 104 M 79.732 109.130 C 75.248 111.640, 71.411 125.612, 74.193 129.304 C 76.271 132.062, 78.912 130.386, 81.606 124.598 C 85.580 116.064, 84.422 106.505, 79.732 109.130 M 177.070 111.638 C 172.192 117.839, 171.139 130.500, 175.501 130.500 C 179.491 130.500, 185.242 116.488, 183.502 111.007 C 182.613 108.204, 179.534 108.506, 177.070 111.638 M 224 121.382 C 224 122.207, 224.450 123.160, 225 123.500 C 225.550 123.840, 226 123.443, 226 122.618 C 226 121.793, 225.550 120.840, 225 120.500 C 224.450 120.160, 224 120.557, 224 121.382 M 34 193.378 C 34 193.585, 34.788 194.373, 35.750 195.128 C 37.336 196.371, 37.371 196.336, 36.128 194.750 C 34.821 193.084, 34 192.555, 34 193.378 M 102.813 224.683 C 103.534 224.972, 104.397 224.936, 104.729 224.604 C 105.061 224.272, 104.471 224.036, 103.417 224.079 C 102.252 224.127, 102.015 224.364, 102.813 224.683 M 120.813 224.683 C 121.534 224.972, 122.397 224.936, 122.729 224.604 C 123.061 224.272, 122.471 224.036, 121.417 224.079 C 120.252 224.127, 120.015 224.364, 120.813 224.683" stroke="none" fill="#f0f6f7" fill-rule="evenodd"/><path d="M 97.500 1.127 C 54.473 6.502, 16.844 38.912, 4.651 81.100 C -8.509 126.632, 7.741 174.506, 46.003 202.927 C 65.681 217.543, 87.361 224.488, 113 224.389 C 136.923 224.297, 155.648 218.521, 175.788 205.022 C 185.579 198.460, 198.551 185.627, 204.853 176.268 C 215.315 160.733, 223.922 137.078, 223.983 123.691 C 223.993 121.410, 224.401 120.130, 225 120.500 C 225.643 120.897, 225.964 117.618, 225.900 111.309 C 225.842 105.551, 225.506 102.532, 225.086 104 C 224.566 105.821, 224.190 104.462, 223.701 99 C 222.318 83.545, 215.467 64.650, 206.117 50.500 C 182.499 14.761, 140.649 -4.262, 97.500 1.127 M 50.920 85.084 C 36.558 87.284, 26 100.759, 26 116.888 C 26 127.992, 29.143 134.502, 36.256 138.130 C 44.718 142.448, 56.297 139.028, 62.152 130.483 L 64.441 127.143 65.640 129.996 C 68.288 136.292, 74.630 137.461, 79.535 132.556 L 81.897 130.194 83.422 132.521 C 86.209 136.775, 91.432 136.568, 95.978 132.022 L 98.036 129.964 99.003 132.508 C 99.535 133.907, 100.657 135.315, 101.498 135.638 C 103.356 136.351, 106 134.333, 106 132.201 C 106 131.346, 107.763 127.004, 109.917 122.553 C 113.705 114.728, 117.352 110.018, 118.632 111.298 C 118.973 111.639, 118.676 115.458, 117.974 119.785 C 117.271 124.112, 116.997 128.850, 117.364 130.314 C 118.187 133.593, 122.203 136.388, 124.875 135.540 C 127.569 134.685, 132.593 129.397, 134.047 125.886 C 135.666 121.978, 136.626 122.258, 137.360 126.850 C 137.975 130.695, 141.300 136, 143.095 136 C 144.984 136, 153.161 127.543, 156.226 122.420 C 158.788 118.135, 159.938 117.109, 162.513 116.809 L 165.664 116.441 164.719 120.871 C 162.129 133.014, 171.016 140.072, 179.153 132.335 L 181.806 129.812 182.488 131.963 C 183.312 134.558, 187.240 136.229, 190.559 135.396 C 193.839 134.573, 199 128.501, 199 125.465 C 199 121.978, 197.820 122.408, 195.500 126.741 C 194.400 128.795, 192.713 130.627, 191.750 130.812 C 190.278 131.093, 190 130.377, 190 126.303 C 190 123.639, 190.900 118.212, 192 114.243 C 193.100 110.273, 194 106.345, 194 105.513 C 194 103.294, 189.647 103.627, 187.490 106.011 L 185.670 108.023 183.796 106.011 C 182.765 104.905, 180.755 104, 179.329 104 C 176.127 104, 170.730 107.237, 168.657 110.401 C 167.804 111.703, 165.681 113.264, 163.940 113.871 C 160.932 114.920, 160.804 114.863, 161.387 112.737 C 163.995 103.232, 162.795 98, 158.005 98 C 155.064 98, 151.581 101.241, 150.725 104.774 C 149.949 107.978, 151.723 113.693, 153.985 115.277 C 155.834 116.572, 155.805 116.764, 153.040 121.605 C 146.678 132.746, 144.652 131.345, 144.148 115.456 C 143.796 104.370, 143.712 104, 141.547 104 C 138.287 104, 136.273 106.822, 135.478 112.500 C 134.270 121.130, 129.954 129, 126.429 129 C 124.550 129, 124.584 124.919, 126.533 116.516 C 128.411 108.418, 127.236 104.701, 122.633 104.173 C 120.308 103.906, 118.877 104.783, 114.890 108.920 L 110 113.993 109.985 110.247 C 109.965 105.438, 108.846 103.741, 105.970 104.163 C 104.022 104.448, 103.474 105.443, 102.427 110.595 C 100.153 121.790, 94.104 132.418, 91.074 130.546 C 89.437 129.534, 89.764 126.128, 92.515 115.539 C 93.899 110.214, 94.772 105.440, 94.456 104.929 C 93.516 103.408, 90.437 103.869, 87.827 105.922 C 85.417 107.818, 85.367 107.818, 84.183 105.922 C 82.558 103.320, 78.108 103.462, 73.898 106.250 C 71.521 107.824, 69.226 111.054, 66.260 117 C 58.909 131.736, 50.571 137.444, 42.373 133.353 C 36.540 130.443, 34.792 126.180, 35.257 116 C 35.711 106.068, 38.351 99.894, 44.821 93.638 C 49.469 89.142, 56.514 87.504, 58.889 90.367 C 60.486 92.290, 60.601 98.009, 59.100 100.813 C 57.483 103.834, 57.747 105, 60.048 105 C 62.782 105, 66.677 100.653, 67.213 97.002 C 68.415 88.816, 61.167 83.514, 50.920 85.084 M 155.885 104.250 C 155.533 111.129, 157.429 113.975, 158.384 108.002 C 158.746 105.734, 158.782 103.456, 158.463 102.939 C 157.413 101.241, 156.002 101.958, 155.885 104.250 M 0.365 112.500 C 0.368 118, 0.536 120.122, 0.738 117.216 C 0.941 114.311, 0.939 109.811, 0.734 107.216 C 0.528 104.622, 0.363 107, 0.365 112.500 M 79.732 109.130 C 75.248 111.640, 71.411 125.612, 74.193 129.304 C 76.271 132.062, 78.912 130.386, 81.606 124.598 C 85.580 116.064, 84.422 106.505, 79.732 109.130 M 177.070 111.638 C 172.192 117.839, 171.139 130.500, 175.501 130.500 C 179.491 130.500, 185.242 116.488, 183.502 111.007 C 182.613 108.204, 179.534 108.506, 177.070 111.638" stroke="none" fill="#2690d9" fill-rule="evenodd"/></svg>