<svg xmlns="http://www.w3.org/2000/svg" width="472" height="472" viewBox="0 0 472 472" version="1.1"><path d="M 81.345 18.765 C 80.711 19.169, 150.080 19.500, 235.500 19.500 C 320.920 19.500, 390.289 19.169, 389.655 18.765 C 389.020 18.361, 319.650 18.031, 235.500 18.031 C 151.350 18.031, 81.980 18.361, 81.345 18.765 M 74 20 C 72.781 20.788, 72.910 20.972, 74.691 20.985 C 75.896 20.993, 77.160 20.550, 77.500 20 C 78.287 18.727, 75.970 18.727, 74 20 M 392.500 19.767 C 393.050 20.304, 395.525 21.010, 398 21.335 C 402.931 21.983, 400.917 20.767, 395 19.524 C 392.716 19.045, 391.847 19.129, 392.500 19.767 M 67.500 21.737 C 63.874 22.652, 60.715 24.048, 61.191 24.525 C 61.449 24.783, 64.099 24.128, 67.080 23.070 C 72.050 21.306, 72.295 20.527, 67.500 21.737 M 412.348 26.615 C 415.014 28.003, 417.394 28.939, 417.636 28.697 C 418.109 28.224, 409.530 23.969, 408.261 24.047 C 407.842 24.072, 409.682 25.228, 412.348 26.615 M 54.278 27.304 C 51.956 28.512, 50.043 29.825, 50.028 30.222 C 50.003 30.862, 58.639 26.695, 59.853 25.480 C 60.977 24.356, 58.194 25.267, 54.278 27.304 M 419 29.858 C 419 30.886, 422.029 32.304, 422.729 31.605 C 422.972 31.361, 422.233 30.660, 421.086 30.046 C 419.938 29.432, 419 29.347, 419 29.858 M 424 32.759 C 424 33.177, 425.012 34.141, 426.250 34.901 C 428.492 36.278, 428.493 36.276, 426.595 34.142 C 424.557 31.850, 424 31.554, 424 32.759 M 39.718 37.592 C 30.534 44.747, 17.502 64.651, 15.552 74.500 C 14.865 77.972, 15.300 77.143, 19.462 67.041 C 23.315 57.691, 29.971 48.213, 38.009 40.631 C 41.875 36.984, 44.878 34, 44.683 34 C 44.488 34, 42.254 35.616, 39.718 37.592 M 434.442 42.318 C 437.224 45.243, 439.698 47.483, 439.940 47.295 C 440.449 46.900, 430.872 37, 429.979 37 C 429.651 37, 431.659 39.393, 434.442 42.318 M 442.584 51.750 C 443.582 53.263, 446.147 57.425, 448.284 61 C 450.421 64.575, 451.847 66.375, 451.453 65 C 450.638 62.160, 442.374 49, 441.405 49 C 441.056 49, 441.586 50.237, 442.584 51.750 M 452 68.143 C 452 68.442, 452.863 71.194, 453.917 74.259 C 457.995 86.111, 458.135 92.312, 457.717 242.500 C 457.497 321.700, 457.025 388.075, 456.668 390 L 456.020 393.500 457.247 390.500 C 458.198 388.176, 458.478 353.603, 458.487 237 L 458.500 86.500 456.186 78 C 454.913 73.325, 453.451 69.073, 452.936 68.550 C 452.421 68.027, 452 67.845, 452 68.143 M 13.151 82.799 C 12.518 85.714, 12.049 89.539, 12.108 91.299 C 12.173 93.204, 12.775 91.463, 13.595 87 C 15.198 78.282, 14.849 74.982, 13.151 82.799 M 107.416 139.917 C 107.187 140.146, 107 183.683, 107 236.667 L 107 333 127.500 333 L 148 333 148 303.131 L 148 273.261 169.750 272.757 C 189.649 272.296, 192.181 272.033, 199.500 269.662 C 222.459 262.225, 239.225 244.214, 244.627 221.185 C 246.969 211.201, 246.068 193.801, 242.712 184.192 C 235.696 164.106, 217.024 146.922, 196.464 141.631 C 191.680 140.399, 182.325 140.037, 149.166 139.798 C 126.432 139.634, 107.644 139.688, 107.416 139.917 M 148 206.063 L 148 237.126 165.750 236.813 C 185.752 236.460, 189.178 235.502, 196.693 228.155 C 203.067 221.923, 205.447 215.915, 205.468 206 C 205.484 198.687, 205.111 196.786, 202.798 192.392 C 199.387 185.910, 191.353 178.649, 185.316 176.592 C 181.794 175.392, 176.626 175, 164.322 175 L 148 175 148 206.063 M 348.963 182.492 C 337.201 184.837, 322.639 192.319, 316.076 199.389 C 314.742 200.825, 313.298 202, 312.866 202 C 312.434 202, 311.950 198.287, 311.790 193.750 L 311.500 185.500 292.250 185.228 L 273 184.957 273 257.978 C 273 298.140, 273 331.337, 273 331.750 C 273 332.163, 281.663 332.500, 292.250 332.500 L 311.500 332.500 312 287 L 312.500 241.500 314.891 237.654 C 316.206 235.539, 319.049 232.528, 321.210 230.963 C 328.211 225.892, 343.396 222, 356.184 222 L 363 222 363 201.500 L 363 181 359.250 181.094 C 357.188 181.146, 352.558 181.775, 348.963 182.492 M 12.122 381.201 C 11.992 385.143, 14.077 396.182, 14.633 394.500 C 14.815 393.950, 14.352 389.900, 13.604 385.500 C 12.663 379.965, 12.206 378.640, 12.122 381.201 M 453.714 399.214 C 452.804 402.062, 452.225 404.558, 452.427 404.761 C 452.630 404.964, 453.563 402.821, 454.500 400 C 455.437 397.179, 456.016 394.683, 455.787 394.454 C 455.558 394.224, 454.625 396.367, 453.714 399.214 M 15.548 398.502 C 16.555 402.747, 21.920 413.534, 26.326 420.171 C 31.907 428.580, 49 444.359, 49 441.103 C 49 440.570, 48.142 439.862, 47.093 439.530 C 43.689 438.449, 30.363 424.684, 25.766 417.500 C 23.303 413.650, 20.046 407.350, 18.530 403.500 C 15.432 395.638, 14.498 394.071, 15.548 398.502 M 450.314 407.750 C 449.972 408.712, 449.503 409.950, 449.272 410.500 C 449.041 411.050, 449.560 410.626, 450.426 409.559 C 451.998 407.620, 452.473 406, 451.469 406 C 451.176 406, 450.657 406.788, 450.314 407.750 M 446.500 415 C 445.647 416.650, 445.174 418, 445.449 418 C 445.724 418, 446.647 416.650, 447.500 415 C 448.353 413.350, 448.826 412, 448.551 412 C 448.276 412, 447.353 413.350, 446.500 415 M 442.494 421.006 C 441.496 422.110, 440.915 423.249, 441.204 423.537 C 441.493 423.826, 442.475 422.923, 443.388 421.531 C 445.381 418.490, 444.983 418.256, 442.494 421.006 M 433.966 430.567 C 430.960 433.630, 426.363 437.530, 423.751 439.235 C 421.139 440.940, 419.225 442.558, 419.497 442.830 C 420.535 443.868, 435.036 432.162, 438.177 427.752 C 441.075 423.682, 440.059 424.361, 433.966 430.567 M 50 442.465 C 50 443.316, 62.165 449.168, 62.740 448.593 C 63.036 448.298, 62.105 447.610, 60.673 447.066 C 59.240 446.521, 56.253 445.149, 54.034 444.017 C 51.815 442.885, 50 442.187, 50 442.465 M 415.441 444.450 C 413.566 445.851, 413.577 445.881, 415.750 445.334 C 416.988 445.022, 418 444.369, 418 443.883 C 418 442.693, 417.705 442.759, 415.441 444.450 M 65 449.895 C 65.825 450.355, 67.850 450.997, 69.500 451.324 L 72.500 451.918 69.500 450.504 C 66.125 448.913, 62.307 448.397, 65 449.895 M 398.500 451 L 396.500 451.859 398.500 451.914 C 399.600 451.945, 401.175 451.533, 402 451 C 403.333 450.138, 403.333 450.037, 402 450.086 C 401.175 450.116, 399.600 450.527, 398.500 451 M 74 452.383 C 74 452.594, 74.900 453.002, 76 453.290 C 77.100 453.577, 78 453.405, 78 452.906 C 78 452.408, 77.100 452, 76 452 C 74.900 452, 74 452.173, 74 452.383 M 392.473 452.956 C 392.798 453.482, 393.725 453.659, 394.532 453.349 C 396.599 452.556, 396.356 452, 393.941 452 C 392.809 452, 392.148 452.430, 392.473 452.956 M 80.655 454.250 C 81.254 455.221, 388.129 455.205, 389.655 454.235 C 390.289 453.831, 320.920 453.500, 235.500 453.500 C 150.080 453.500, 80.400 453.837, 80.655 454.250" stroke="none" fill="#9b9bfa" fill-rule="evenodd"/><path d="M 77.430 20.113 C 77.047 20.733, 75.496 20.949, 73.829 20.616 C 72.218 20.294, 71.128 20.398, 71.405 20.847 C 71.683 21.296, 69.378 22.461, 66.283 23.437 C 63.188 24.413, 58.258 26.508, 55.328 28.093 C 52.397 29.679, 50 30.706, 50 30.377 C 50 30.048, 49.115 30.841, 48.033 32.139 C 46.952 33.438, 46.052 34.152, 46.033 33.728 C 46.015 33.303, 42.594 36.213, 38.432 40.196 C 24.262 53.752, 17.026 67.517, 13.565 87.500 C 12.204 95.358, 12.006 114.166, 12.003 235.761 C 12 389.310, 11.894 386.452, 18.179 402.500 C 24.493 418.619, 30.702 426.454, 48.719 441.035 C 52.427 444.035, 72.086 452, 75.783 452 C 77.003 452, 78 452.437, 78 452.972 C 78 453.597, 134.254 453.944, 235.639 453.944 C 322.340 453.944, 392.978 453.644, 392.612 453.279 C 391.764 452.431, 401.874 449.804, 403.091 450.556 C 403.591 450.865, 404 450.694, 404 450.176 C 404 449.211, 407.773 447.655, 409.408 447.945 C 409.908 448.033, 410.583 447.744, 410.908 447.303 C 411.920 445.929, 417.999 442.842, 418.015 443.693 C 418.024 444.137, 418.375 443.958, 418.796 443.297 C 419.216 442.635, 421.424 440.835, 423.701 439.297 C 427.955 436.423, 441 424.308, 441 423.231 C 441 422.900, 441.847 421.700, 442.882 420.564 C 448.685 414.197, 455.240 397.480, 456.953 384.678 C 458.395 373.900, 458.396 99.102, 456.954 88.322 C 454.711 71.558, 446.464 54.459, 434.974 42.751 C 431.871 39.589, 429.557 36.776, 429.833 36.501 C 430.108 36.225, 429.668 36, 428.855 36 C 428.042 36, 426.411 35.100, 425.230 34 C 424.050 32.900, 422.647 32, 422.113 32 C 421.580 32, 420.548 31.436, 419.821 30.747 C 419.095 30.057, 416.137 28.405, 413.250 27.076 C 410.363 25.746, 408 24.299, 408 23.860 C 408 23.422, 407.371 23.304, 406.601 23.600 C 405.832 23.895, 404.925 23.687, 404.585 23.138 C 404.246 22.589, 401.495 21.831, 398.471 21.453 C 395.447 21.075, 392.731 20.375, 392.436 19.896 C 391.605 18.552, 78.262 18.768, 77.430 20.113 M 107.416 139.917 C 107.187 140.146, 107 183.683, 107 236.667 L 107 333 127.500 333 L 148 333 148 303.131 L 148 273.261 169.750 272.757 C 189.649 272.296, 192.181 272.033, 199.500 269.662 C 222.459 262.225, 239.225 244.214, 244.627 221.185 C 246.969 211.201, 246.068 193.801, 242.712 184.192 C 235.696 164.106, 217.024 146.922, 196.464 141.631 C 191.680 140.399, 182.325 140.037, 149.166 139.798 C 126.432 139.634, 107.644 139.688, 107.416 139.917 M 148 206.063 L 148 237.126 165.750 236.813 C 185.752 236.460, 189.178 235.502, 196.693 228.155 C 203.067 221.923, 205.447 215.915, 205.468 206 C 205.484 198.687, 205.111 196.786, 202.798 192.392 C 199.387 185.910, 191.353 178.649, 185.316 176.592 C 181.794 175.392, 176.626 175, 164.322 175 L 148 175 148 206.063 M 348.963 182.492 C 337.201 184.837, 322.639 192.319, 316.076 199.389 C 314.742 200.825, 313.298 202, 312.866 202 C 312.434 202, 311.950 198.287, 311.790 193.750 L 311.500 185.500 292.250 185.228 L 273 184.957 273 257.978 C 273 298.140, 273 331.337, 273 331.750 C 273 332.163, 281.663 332.500, 292.250 332.500 L 311.500 332.500 312 287 L 312.500 241.500 314.891 237.654 C 316.206 235.539, 319.049 232.528, 321.210 230.963 C 328.211 225.892, 343.396 222, 356.184 222 L 363 222 363 201.500 L 363 181 359.250 181.094 C 357.188 181.146, 352.558 181.775, 348.963 182.492" stroke="none" fill="#05055c" fill-rule="evenodd"/></svg>