<svg xmlns="http://www.w3.org/2000/svg" width="472" height="472" viewBox="0 0 472 472" version="1.1"><path d="M 161.328 14.750 C 202.484 14.894, 269.534 14.894, 310.328 14.750 C 351.123 14.605, 317.450 14.487, 235.500 14.487 C 153.550 14.487, 120.173 14.605, 161.328 14.750 M 390.269 15.693 C 391.242 15.947, 392.592 15.930, 393.269 15.656 C 393.946 15.382, 393.150 15.175, 391.500 15.195 C 389.850 15.215, 389.296 15.439, 390.269 15.693 M 66.500 17.707 C 55.918 21.709, 52.007 23.571, 46 27.467 C 38.757 32.166, 29 40.630, 29 42.214 C 29 42.779, 32.043 40.375, 35.762 36.871 C 39.481 33.367, 45.324 28.836, 48.746 26.802 C 54.369 23.460, 66.574 18.415, 71.385 17.443 C 72.422 17.234, 73.510 16.824, 73.802 16.531 C 74.827 15.506, 70.460 16.209, 66.500 17.707 M 397 16.902 C 397.825 17.365, 400.300 18.013, 402.500 18.342 L 406.500 18.941 403 17.546 C 399.027 15.964, 394.451 15.472, 397 16.902 M 408 19.487 C 408 19.728, 411.413 21.566, 415.584 23.573 C 419.755 25.579, 426.168 29.508, 429.834 32.304 C 433.500 35.100, 435.849 36.584, 435.053 35.603 C 433.089 33.184, 422.482 25.739, 417.216 23.084 C 412.014 20.462, 408 18.895, 408 19.487 M 440.571 42.204 C 442.141 44.241, 443.645 45.689, 443.912 45.422 C 444.179 45.154, 442.894 43.488, 441.057 41.718 L 437.716 38.500 440.571 42.204 M 24.798 47.250 C 21.893 51.120, 20.740 53, 21.271 53 C 21.486 53, 23.115 50.975, 24.893 48.500 C 28.580 43.366, 28.500 42.317, 24.798 47.250 M 446.856 50.053 C 453.337 59.760, 457.583 71.069, 460.916 87.500 L 461.931 92.500 461.432 86.538 C 460.899 80.176, 458.747 71.504, 456.422 66.349 C 455.640 64.616, 455 62.968, 455 62.687 C 455 61.578, 446.767 47.974, 445.696 47.312 C 445.068 46.924, 445.590 48.158, 446.856 50.053 M 15.934 62.401 C 12.106 70.569, 8.339 84.785, 9.344 87.269 C 9.618 87.946, 9.878 87.559, 9.921 86.410 C 10.093 81.858, 14.215 68.113, 17.467 61.250 C 19.356 57.263, 20.669 54, 20.386 54 C 20.102 54, 18.099 57.780, 15.934 62.401 M 113 226.433 L 113 325 133.486 325 L 153.971 325 154.236 294.250 L 154.500 263.500 178 262.929 C 203.771 262.303, 205.811 261.902, 219.275 254.813 C 227.471 250.498, 241.460 236.556, 245.677 228.500 C 252.870 214.757, 255.719 197.504, 253.057 183.811 C 248.984 162.858, 235.370 144.725, 216.839 135.572 C 202.879 128.677, 203.051 128.697, 155.750 128.260 L 113 127.866 113 226.433 M 154.746 164.588 C 154.335 164.998, 154 179.188, 154 196.121 L 154 226.909 157.580 227.581 C 163.501 228.692, 187.025 227.299, 191.925 225.547 C 201.456 222.140, 208.658 214.423, 211.532 204.539 C 215.817 189.797, 208.902 174.015, 195.224 167.318 C 189.751 164.639, 188.754 164.501, 172.496 164.179 C 163.143 163.994, 155.156 164.178, 154.746 164.588 M 314.827 173.970 C 292.573 178.663, 278.128 192.532, 274.710 212.486 C 272.544 225.130, 277.146 239.822, 286.184 249.120 C 294.154 257.320, 301.300 261.291, 322.657 269.390 C 338.501 275.398, 345.137 283.076, 340.369 289.883 C 337.653 293.761, 332.803 295.107, 321.621 295.083 C 310.629 295.061, 302.408 293.634, 286.408 288.973 C 280.794 287.338, 275.931 286, 275.601 286 C 275.270 286, 275 293.595, 275 302.878 C 275 315.179, 275.339 320.026, 276.250 320.755 C 278.661 322.685, 292.764 326.960, 302.086 328.586 C 314.945 330.830, 334.653 330.083, 344.500 326.978 C 360.479 321.939, 371.872 313.189, 377.752 301.441 C 387.138 282.684, 384.049 264.756, 369.011 250.712 C 360.384 242.654, 354.174 239.052, 338.629 233.088 C 324.796 227.780, 318.920 224.315, 317.144 220.417 C 315.586 216.996, 315.702 215.314, 317.734 211.874 C 319.764 208.436, 326.593 206, 334.199 206 C 341.431 206, 357.146 209.707, 366.322 213.577 C 370.787 215.460, 374.565 217, 374.720 217 C 374.874 217, 375 208.955, 375 199.122 C 375 186.033, 374.665 180.971, 373.750 180.222 C 371.625 178.482, 355.909 174.161, 347.678 173.053 C 336.449 171.541, 324.800 171.867, 314.827 173.970 M 460.653 384.500 C 458.070 403.990, 448.661 422.926, 435.827 434.465 C 433.019 436.990, 430.949 439.282, 431.227 439.560 C 432.279 440.612, 446.974 423.745, 450.825 417.065 C 457.049 406.271, 462.648 388.159, 461.821 381.500 C 461.548 379.304, 461.235 380.107, 460.653 384.500 M 9.070 384.685 C 8.912 389.604, 12.269 401.779, 15.949 409.633 C 18.106 414.235, 20.134 418, 20.455 418 C 20.777 418, 20.134 416.222, 19.025 414.049 C 15.315 406.777, 12.792 399.568, 10.959 391 C 9.959 386.325, 9.109 383.483, 9.070 384.685 M 21.606 420 C 23.149 423.208, 32.529 434.133, 36.919 437.835 C 42.830 442.819, 51.167 448.125, 57.377 450.856 C 65.202 454.296, 65.192 453.253, 57.366 449.580 C 44.381 443.486, 34.270 435.206, 23.689 422 C 22.146 420.075, 21.209 419.175, 21.606 420 M 423.832 443.778 C 414.763 449.733, 414.183 450.235, 419.777 447.284 C 424.605 444.737, 431.195 440.083, 430 440.064 C 429.725 440.060, 426.949 441.731, 423.832 443.778 M 403.500 453.090 C 400.750 454.092, 397.514 454.932, 396.309 454.956 C 395.104 454.980, 393.880 455.385, 393.589 455.856 C 393.298 456.326, 394.284 456.512, 395.780 456.270 C 399.282 455.701, 411 451.966, 411 451.418 C 411 450.689, 408.651 451.212, 403.500 453.090 M 69.500 454.845 C 72.715 456.216, 78.559 457.152, 77.469 456.122 C 76.936 455.618, 74.475 454.933, 72 454.599 C 69.139 454.213, 68.228 454.303, 69.500 454.845 M 82.346 457.235 C 83.798 458.159, 386.882 458.105, 389.213 457.180 C 390.155 456.806, 321.235 456.500, 236.058 456.500 C 150.881 456.500, 81.711 456.831, 82.346 457.235" stroke="none" fill="#31a8f7" fill-rule="evenodd"/><path d="M 77.500 16.021 C 71.626 17.152, 70.232 17.558, 62.182 20.483 C 52.219 24.103, 44.906 28.620, 35.939 36.693 C 23.949 47.487, 16.544 59.688, 11.778 76.500 L 9.510 84.500 9.248 232.813 C 8.996 374.584, 9.068 381.533, 10.864 390.324 C 14.329 407.285, 20.361 419.011, 32 431.406 C 42.541 442.633, 60.136 452.737, 72.262 454.528 C 74.882 454.914, 77.266 455.622, 77.562 456.100 C 78.328 457.339, 392.749 457.216, 393.515 455.975 C 393.847 455.439, 394.964 455, 395.997 455 C 397.031 455, 401.617 453.801, 406.188 452.335 C 429.485 444.864, 448.747 425.499, 456.874 401.375 C 462.018 386.105, 462.001 386.638, 461.982 235.261 C 461.962 88.539, 461.968 88.746, 457.888 73.579 C 455.853 66.014, 446.734 48.074, 443.866 45.993 C 443.482 45.714, 441.784 43.745, 440.094 41.618 C 435.673 36.055, 424.630 28.008, 414.905 23.264 C 407.013 19.413, 402.939 18.120, 392 15.994 C 386.474 14.920, 83.082 14.946, 77.500 16.021 M 113 226.433 L 113 325 133.486 325 L 153.971 325 154.236 294.250 L 154.500 263.500 178 262.929 C 203.771 262.303, 205.811 261.902, 219.275 254.813 C 227.471 250.498, 241.460 236.556, 245.677 228.500 C 252.870 214.757, 255.719 197.504, 253.057 183.811 C 248.984 162.858, 235.370 144.725, 216.839 135.572 C 202.879 128.677, 203.051 128.697, 155.750 128.260 L 113 127.866 113 226.433 M 154.746 164.588 C 154.335 164.998, 154 179.188, 154 196.121 L 154 226.909 157.580 227.581 C 163.501 228.692, 187.025 227.299, 191.925 225.547 C 201.456 222.140, 208.658 214.423, 211.532 204.539 C 215.817 189.797, 208.902 174.015, 195.224 167.318 C 189.751 164.639, 188.754 164.501, 172.496 164.179 C 163.143 163.994, 155.156 164.178, 154.746 164.588 M 314.827 173.970 C 292.573 178.663, 278.128 192.532, 274.710 212.486 C 272.544 225.130, 277.146 239.822, 286.184 249.120 C 294.154 257.320, 301.300 261.291, 322.657 269.390 C 338.501 275.398, 345.137 283.076, 340.369 289.883 C 337.653 293.761, 332.803 295.107, 321.621 295.083 C 310.629 295.061, 302.408 293.634, 286.408 288.973 C 280.794 287.338, 275.931 286, 275.601 286 C 275.270 286, 275 293.595, 275 302.878 C 275 315.179, 275.339 320.026, 276.250 320.755 C 278.661 322.685, 292.764 326.960, 302.086 328.586 C 314.945 330.830, 334.653 330.083, 344.500 326.978 C 360.479 321.939, 371.872 313.189, 377.752 301.441 C 387.138 282.684, 384.049 264.756, 369.011 250.712 C 360.384 242.654, 354.174 239.052, 338.629 233.088 C 324.796 227.780, 318.920 224.315, 317.144 220.417 C 315.586 216.996, 315.702 215.314, 317.734 211.874 C 319.764 208.436, 326.593 206, 334.199 206 C 341.431 206, 357.146 209.707, 366.322 213.577 C 370.787 215.460, 374.565 217, 374.720 217 C 374.874 217, 375 208.955, 375 199.122 C 375 186.033, 374.665 180.971, 373.750 180.222 C 371.625 178.482, 355.909 174.161, 347.678 173.053 C 336.449 171.541, 324.800 171.867, 314.827 173.970" stroke="none" fill="#041d35" fill-rule="evenodd"/></svg>