<svg xmlns="http://www.w3.org/2000/svg" width="2048" height="2048" viewBox="0 0 2048 2048" version="1.1"><path d="" stroke="none" fill="#080404" fill-rule="evenodd"/><path d="M 968.500 0.708 C 962.253 0.990, 953.264 1.733, 916 5.046 C 906.680 5.874, 886.880 8.394, 869.500 10.964 C 845.150 14.564, 800.780 23.368, 779 28.921 C 752.881 35.580, 732.254 41.407, 711.963 47.858 C 698.001 52.297, 659.389 65.919, 654 68.308 C 652.075 69.161, 646.450 71.455, 641.500 73.405 C 587.786 94.569, 521.789 128.410, 475 158.780 C 470.325 161.815, 463.350 166.341, 459.500 168.838 C 428.096 189.212, 382.729 223.790, 351 251.537 C 281.124 312.644, 215.044 388.270, 167.541 461.500 C 164.330 466.450, 159.804 473.425, 157.483 477 C 128.492 521.653, 94.158 588.830, 73.405 641.500 C 71.455 646.450, 69.161 652.075, 68.308 654 C 65.919 659.389, 52.297 698.001, 47.858 711.963 C 41.407 732.254, 35.580 752.881, 28.921 779 C 24.973 794.482, 17.859 828.612, 14.434 848.500 C 10.172 873.248, 6.479 899.940, 4.957 917 C 4.392 923.325, 3.236 935.475, 2.387 944 C -0.898 976.989, -0.515 1078.085, 3.015 1110 C 3.532 1114.675, 4.423 1123.900, 4.995 1130.500 C 7.467 1159.040, 17.668 1222.609, 23.530 1246 C 24.288 1249.025, 26.303 1257.575, 28.009 1265 C 37.905 1308.097, 59.196 1373.990, 75.504 1412 C 77.510 1416.675, 79.740 1422.075, 80.459 1424 C 82.734 1430.084, 101.692 1471.076, 107.052 1481.500 C 116.823 1500.503, 125.823 1517.522, 129.262 1523.500 C 131.160 1526.800, 134.636 1532.875, 136.986 1537 C 162.299 1581.439, 197.468 1631.930, 234.951 1677.648 C 262.291 1710.995, 304.846 1755.300, 338 1784.933 C 343.775 1790.094, 350.075 1795.726, 352 1797.447 C 400.674 1840.963, 479.664 1895.482, 540.360 1927.455 C 576.252 1946.361, 611.286 1962.690, 641.500 1974.595 C 646.450 1976.545, 652.075 1978.839, 654 1979.692 C 659.389 1982.081, 698.001 1995.703, 711.963 2000.142 C 738.086 2008.447, 775.264 2018.611, 795.500 2022.979 C 841.256 2032.856, 885.980 2040.268, 916 2042.950 C 921.775 2043.466, 934.600 2044.690, 944.500 2045.670 C 970.450 2048.241, 1075.990 2048.287, 1102 2045.739 C 1111.625 2044.796, 1124.675 2043.562, 1131 2042.995 C 1174.997 2039.055, 1238.389 2027.376, 1290.500 2013.608 C 1327.285 2003.890, 1381.270 1985.617, 1412 1972.482 C 1416.675 1970.484, 1422.075 1968.260, 1424 1967.541 C 1430.084 1965.266, 1471.076 1946.308, 1481.500 1940.948 C 1516.295 1923.057, 1518.063 1922.087, 1549.500 1903.656 C 1562.789 1895.865, 1600.763 1871.154, 1614 1861.684 C 1713.331 1790.622, 1790.622 1713.331, 1861.684 1614 C 1871.154 1600.763, 1895.865 1562.789, 1903.656 1549.500 C 1922.087 1518.063, 1923.057 1516.295, 1940.948 1481.500 C 1946.308 1471.076, 1965.266 1430.084, 1967.541 1424 C 1968.260 1422.075, 1970.484 1416.675, 1972.482 1412 C 1985.617 1381.270, 2003.890 1327.285, 2013.608 1290.500 C 2027.309 1238.640, 2039.060 1174.963, 2042.950 1131.500 C 2043.491 1125.450, 2044.622 1112.850, 2045.462 1103.500 C 2046.302 1094.150, 2046.992 1083.039, 2046.995 1078.809 C 2046.998 1074.579, 2047.450 1070.840, 2048 1070.500 C 2048.645 1070.102, 2048.995 1052.756, 2048.985 1021.691 C 2048.975 990.208, 2048.633 974.020, 2048 975 C 2047.331 976.035, 2047.017 973.866, 2046.986 968 C 2046.962 963.325, 2046.295 952.525, 2045.506 944 C 2044.716 935.475, 2043.603 923.325, 2043.032 917 C 2040.411 887.939, 2031.638 833.433, 2024.844 804 C 2015.943 765.440, 2009.435 741.194, 2000.142 711.963 C 1995.703 698.001, 1982.081 659.389, 1979.692 654 C 1978.839 652.075, 1976.545 646.450, 1974.595 641.500 C 1959.982 604.413, 1934.792 551.985, 1916.217 520 C 1892.443 479.061, 1875.413 452.737, 1851.060 419.280 C 1835.967 398.545, 1810.608 366.722, 1797.447 352 C 1795.726 350.075, 1790.094 343.775, 1784.933 338 C 1764.957 315.651, 1732.349 283.043, 1710 263.067 C 1704.225 257.906, 1697.925 252.274, 1696 250.553 C 1655.278 214.147, 1587.614 165.817, 1537 136.986 C 1532.875 134.636, 1526.800 131.160, 1523.500 129.262 C 1517.522 125.823, 1500.503 116.823, 1481.500 107.052 C 1471.076 101.692, 1430.084 82.734, 1424 80.459 C 1422.075 79.740, 1416.675 77.516, 1412 75.518 C 1372.313 58.555, 1314.414 39.834, 1266.500 28.473 C 1258.250 26.517, 1249.025 24.294, 1246 23.534 C 1224.837 18.215, 1160.099 7.607, 1136 5.508 C 1131.875 5.149, 1122.200 4.219, 1114.500 3.441 C 1088.849 0.852, 1063.898 -0.001, 1019.500 0.196 C 995.300 0.304, 972.350 0.534, 968.500 0.708 M 979 159.513 C 911.569 162.646, 841.529 174.594, 775 194.312 C 763.539 197.708, 730.938 208.596, 723.500 211.511 C 720.200 212.804, 713.225 215.515, 708 217.534 C 634.833 245.815, 563.921 285.711, 498.394 335.464 C 453.613 369.465, 404.304 415.781, 369.538 456.500 C 365.782 460.900, 361.536 465.850, 360.104 467.501 C 334.011 497.572, 297.884 548.928, 274.985 588.500 C 257.221 619.197, 234.027 665.824, 224.991 689 C 224.026 691.475, 221.358 698.225, 219.062 704 C 211.120 723.976, 210.144 726.557, 205.645 739.500 C 188.545 788.688, 175.299 842.883, 167.516 895.500 C 155.244 978.464, 155.260 1067.532, 167.563 1150.500 C 176.833 1213.020, 191.711 1270.053, 214.649 1331 C 220.624 1346.877, 220.967 1347.694, 233.517 1376 C 242.868 1397.089, 262.461 1436.011, 271.021 1450.500 C 301.942 1502.841, 325.085 1536.218, 357.080 1574.615 C 389.563 1613.598, 430.718 1654.982, 468 1686.153 C 480.229 1696.378, 483.999 1699.344, 504.500 1714.873 C 563.442 1759.519, 629.724 1796.894, 701 1825.675 C 778.356 1856.910, 861.426 1876.746, 945.263 1884.001 C 1007.398 1889.378, 1043.183 1889.177, 1111.900 1883.066 C 1174.337 1877.513, 1253.417 1859.506, 1317 1836.363 C 1369.273 1817.337, 1424.607 1790.876, 1470.159 1763.120 C 1471.622 1762.229, 1474.997 1760.186, 1477.659 1758.581 C 1496.695 1747.101, 1533.095 1721.668, 1555.500 1704.193 C 1606.263 1664.601, 1664.601 1606.263, 1704.193 1555.500 C 1721.668 1533.095, 1747.101 1496.695, 1758.581 1477.659 C 1760.186 1474.997, 1762.229 1471.622, 1763.120 1470.159 C 1788.208 1428.984, 1810.541 1383.389, 1830.547 1332.500 C 1838.213 1312.998, 1845.913 1289.850, 1855.327 1258 C 1866.826 1219.098, 1879.442 1152.650, 1883.066 1111.900 C 1889.177 1043.183, 1889.378 1007.398, 1884.001 945.263 C 1878.301 879.389, 1865.372 816.300, 1844.602 753 C 1820.946 680.907, 1787.814 612.217, 1746.446 549.500 C 1725.039 517.046, 1706.245 491.779, 1683.592 465 C 1667.978 446.541, 1660.857 438.815, 1639.046 416.671 C 1594.755 371.703, 1551.224 335.644, 1501 302.322 C 1453.285 270.665, 1414.138 249.830, 1351 222.488 C 1338.119 216.910, 1302.207 203.958, 1282.500 197.782 C 1212.143 175.736, 1140.584 163.013, 1067 159.466 C 1032.654 157.811, 1015.418 157.820, 979 159.513 M 1013.500 395.161 C 993.792 398.807, 953.862 408.604, 934.404 414.569 C 893.565 427.087, 862.332 438.855, 824.500 455.978 C 776.590 477.662, 721.339 509.357, 679 539.445 C 675.425 541.985, 671.375 544.832, 670 545.770 C 657.108 554.570, 619.951 583.977, 603.955 598.040 C 537.161 656.762, 483.887 717.428, 438.897 786 C 414.514 823.165, 388.611 871.178, 373.080 908 C 371.341 912.125, 369.249 917.003, 368.432 918.840 C 367.615 920.677, 365.352 926.302, 363.404 931.340 C 361.456 936.378, 358.817 943.200, 357.539 946.500 C 353.250 957.574, 343.475 987.641, 339.982 1000.500 C 328.436 1043.008, 321.301 1081.074, 317.024 1123 C 315.831 1134.694, 314.453 1181, 315.298 1181 C 315.636 1181, 317.781 1177.737, 320.066 1173.750 C 345.860 1128.735, 382.061 1071.518, 405.322 1039 C 440.063 990.432, 467.185 957.774, 500.467 924.431 C 547.742 877.070, 588.387 849.997, 629 838.818 C 639.489 835.931, 641.775 835.655, 655 835.672 C 668.877 835.691, 669.844 835.827, 677.500 838.839 C 691.256 844.250, 698.306 852.256, 703.178 868 L 705.500 875.500 705.761 1127.247 L 706.023 1378.995 703.922 1385.247 C 699.235 1399.190, 688.865 1407.702, 668.500 1414.322 C 644.682 1422.063, 606.617 1423.866, 567.500 1419.104 C 559.250 1418.100, 552.166 1417.572, 551.758 1417.931 C 549.628 1419.806, 578.009 1454.902, 597.807 1474.875 C 621.337 1498.613, 641.224 1515.227, 667.500 1533.095 C 728.545 1574.609, 799.024 1605.658, 886 1629.355 C 894.674 1631.719, 905.649 1634.401, 923 1638.398 C 946.764 1643.873, 985.155 1650.468, 1010.869 1653.493 L 1024.239 1655.065 1103.050 1576.247 L 1181.861 1497.428 1260.539 1536.770 L 1339.218 1576.111 1359.665 1566.015 C 1396.718 1547.719, 1444.713 1518.330, 1474.233 1495.863 C 1477.386 1493.463, 1482.099 1489.925, 1484.707 1488 C 1529.279 1455.097, 1589.321 1397.680, 1631.106 1348 C 1675.801 1294.860, 1713.681 1237.064, 1728.865 1198.840 C 1732.055 1190.810, 1733.950 1181.487, 1732.263 1182.122 C 1731.712 1182.330, 1727.528 1186.952, 1722.965 1192.394 C 1712.238 1205.186, 1685.282 1232.313, 1672.500 1243.177 C 1637.387 1273.024, 1603.151 1295.043, 1563 1313.601 C 1542.317 1323.161, 1530.096 1327.966, 1509.500 1334.634 C 1498.871 1338.076, 1498.129 1338.177, 1487.500 1337.631 C 1464.081 1336.428, 1436.892 1326.873, 1426.316 1316.129 C 1417.095 1306.761, 1417.989 1339.288, 1418.002 1013.500 C 1418.014 731.966, 1418.058 725.318, 1419.953 717.411 C 1427.098 687.612, 1457.105 635.302, 1508.707 562.691 C 1523.973 541.209, 1552.843 502.337, 1566.207 485.270 C 1575.090 473.925, 1576.436 471.458, 1573.250 472.362 C 1572.287 472.635, 1569.025 473.550, 1566 474.396 C 1533.167 483.580, 1501.038 493.536, 1486.500 499.032 C 1483.750 500.072, 1475.200 503.252, 1467.500 506.101 C 1454.895 510.763, 1449.798 512.771, 1431 520.478 C 1409.581 529.260, 1369.908 548.721, 1348.500 560.948 C 1334.148 569.145, 1316.149 580.288, 1305.839 587.360 C 1265.510 615.022, 1236.535 640.669, 1214.039 668.616 L 1208.311 675.732 1206.488 672.347 C 1203.540 666.873, 1188.153 652.910, 1179.476 647.835 C 1159.993 636.440, 1135.025 630.073, 1109.603 630.017 L 1101.706 630 1110.636 639.250 C 1124.306 653.410, 1138.628 671.997, 1147.430 687 C 1150.908 692.929, 1160.077 711.692, 1163.800 720.500 C 1169.945 735.040, 1175.154 753.447, 1178.514 772.500 L 1180.983 786.500 1180.992 1028.216 L 1181 1269.931 1172.250 1275.606 C 1155.619 1286.393, 1153.463 1287.728, 1144.488 1292.793 C 1135.872 1297.655, 1110.058 1310.272, 1099.500 1314.782 C 1084.432 1321.218, 1059.184 1329.652, 1040.597 1334.457 C 1029.904 1337.221, 1024.982 1337.993, 1018.196 1337.969 C 978.502 1337.828, 952.619 1321.964, 945.236 1293.250 C 943.262 1285.574, 943.257 1277.488, 945.008 907.610 C 945.524 798.771, 945.729 709.370, 945.465 708.943 C 945.200 708.515, 943.308 708.628, 941.260 709.194 C 935.517 710.780, 921.417 709.645, 914.706 707.058 C 903.874 702.881, 892.217 691.659, 885.587 679.025 C 874.415 657.735, 868.530 629.002, 867.322 589.833 C 866.763 571.733, 866.894 569.392, 868.962 560.442 C 870.198 555.094, 872.480 547.731, 874.034 544.081 C 891.358 503.369, 941.595 451.795, 1011.944 402.500 C 1015.084 400.300, 1018.968 397.502, 1020.576 396.282 L 1023.500 394.063 1021 394.150 C 1019.625 394.197, 1016.250 394.653, 1013.500 395.161 M 0.463 1023 C 0.463 1049.675, 0.592 1060.588, 0.749 1047.250 C 0.907 1033.912, 0.907 1012.087, 0.749 998.750 C 0.592 985.413, 0.463 996.325, 0.463 1023" stroke="none" fill="#040404" fill-rule="evenodd"/></svg>